<?xml version="1.0" encoding="UTF-8" standalone="no"?>
<svg
   xmlns:dc="http://purl.org/dc/elements/1.1/"
   xmlns:cc="http://creativecommons.org/ns#"
   xmlns:rdf="http://www.w3.org/1999/02/22-rdf-syntax-ns#"
   xmlns:svg="http://www.w3.org/2000/svg"
   xmlns="http://www.w3.org/2000/svg"
   xmlns:xlink="http://www.w3.org/1999/xlink"
   xmlns:sodipodi="http://sodipodi.sourceforge.net/DTD/sodipodi-0.dtd"
   xmlns:inkscape="http://www.inkscape.org/namespaces/inkscape"
   width="199.16571mm"
   height="200.00066mm"
   viewBox="0 0 199.16571 200.00066"
   version="1.1"
   id="svg8"
   inkscape:version="1.0.2-2 (e86c870879, 2021-01-15)"
   sodipodi:docname="IQ.svg"
   inkscape:export-filename="C:\Users\julia\OneDrive\Images\Random Images\IQ.png"
   inkscape:export-xdpi="96.031586"
   inkscape:export-ydpi="96.031586">
  <defs
     id="defs2">
    <linearGradient
       inkscape:collect="always"
       id="linearGradient5401">
      <stop
         style="stop-color:#7c79ec;stop-opacity:1"
         offset="0"
         id="stop5397" />
      <stop
         style="stop-color:#92a5e2;stop-opacity:1"
         offset="1"
         id="stop5399" />
    </linearGradient>
    <linearGradient
       inkscape:collect="always"
       id="linearGradient3352-2">
      <stop
         style="stop-color:#d4ff2a;stop-opacity:1;"
         offset="0"
         id="stop3348" />
      <stop
         style="stop-color:#d4ff2a;stop-opacity:0;"
         offset="1"
         id="stop3350" />
    </linearGradient>
    <linearGradient
       inkscape:collect="always"
       xlink:href="#linearGradient3352-2"
       id="linearGradient3362"
       x1="39.427296"
       y1="97.511696"
       x2="176.287"
       y2="97.511696"
       gradientUnits="userSpaceOnUse" />
    <linearGradient
       inkscape:collect="always"
       xlink:href="#linearGradient5401"
       id="linearGradient5405"
       gradientUnits="userSpaceOnUse"
       x1="176.54012"
       y1="146.88495"
       x2="40.351109"
       y2="48.719299"
       spreadMethod="pad"
       gradientTransform="matrix(0.99272451,0,0,0.99272451,0.53340213,0)" />
    <linearGradient
       inkscape:collect="always"
       xlink:href="#linearGradient5401"
       id="linearGradient5427"
       x1="62.557774"
       y1="20.575754"
       x2="174.81097"
       y2="20.575754"
       gradientUnits="userSpaceOnUse"
       gradientTransform="matrix(0.99126811,0,0,1.00266,0.52916667,-0.34715777)" />
    <linearGradient
       inkscape:collect="always"
       xlink:href="#linearGradient5401"
       id="linearGradient5439"
       x1="0.25997901"
       y1="110.64541"
       x2="69.819153"
       y2="110.64541"
       gradientUnits="userSpaceOnUse"
       gradientTransform="matrix(3.7465251,0,0,3.7575422,1.9999999,0)" />
    <linearGradient
       inkscape:collect="always"
       xlink:href="#linearGradient5401"
       id="linearGradient5476"
       x1="102.43906"
       y1="153.75511"
       x2="200.28004"
       y2="153.75511"
       gradientUnits="userSpaceOnUse"
       gradientTransform="matrix(0.99126809,0,0,0.99418305,0.52916667,0)" />
  </defs>
  <sodipodi:namedview
     id="base"
     pagecolor="#ffffff"
     bordercolor="#000000"
     borderopacity="1"
     inkscape:pageopacity="0"
     inkscape:pageshadow="2"
     inkscape:zoom="0.45254834"
     inkscape:cx="-972.06508"
     inkscape:cy="566.32002"
     inkscape:document-units="mm"
     inkscape:current-layer="g112"
     inkscape:document-rotation="0"
     showgrid="false"
     inkscape:snap-to-guides="false"
     showguides="true"
     inkscape:window-width="2560"
     inkscape:window-height="1009"
     inkscape:window-x="1358"
     inkscape:window-y="-8"
     inkscape:window-maximized="1"
     showborder="true"
     inkscape:showpageshadow="false"
     inkscape:pagecheckerboard="true"
     inkscape:snap-page="false"
     inkscape:snap-grids="true"
     inkscape:snap-object-midpoints="false"
     inkscape:snap-others="true"
     fit-margin-top="0"
     fit-margin-left="0"
     fit-margin-right="0"
     fit-margin-bottom="0">
    <inkscape:grid
       type="xygrid"
       id="grid839"
       originx="-373.48551"
       originy="4.8815352e-09" />
  </sodipodi:namedview>
  <metadata
     id="metadata5">
    <rdf:RDF>
      <cc:Work
         rdf:about="">
        <dc:format>image/svg+xml</dc:format>
        <dc:type
           rdf:resource="http://purl.org/dc/dcmitype/StillImage" />
        <dc:title />
      </cc:Work>
    </rdf:RDF>
  </metadata>
  <g
     inkscape:label="Layer 1"
     inkscape:groupmode="layer"
     id="layer1"
     transform="translate(-373.48553)">
    <g
       id="g955"
       transform="translate(373.00803,0.14864133)">
      <g
         id="g112">
        <ellipse
           style="fill:#eaefff;fill-opacity:1;fill-rule:evenodd;stroke:none;stroke-width:0.309641"
           id="path10"
           cx="100.08619"
           cy="-99.849785"
           transform="scale(1,-1)"
           rx="99.557022"
           ry="99.849785" />
        <g
           aria-label="IQ"
           transform="scale(0.99205954,1.008004)"
           id="text837"
           style="font-style:normal;font-weight:normal;font-size:27.4272px;line-height:1.25;font-family:sans-serif;mix-blend-mode:normal;fill:url(#linearGradient5405);fill-opacity:1;fill-rule:evenodd;stroke:none;stroke-width:0.68568">
          <path
             d="m 39.673839,59.940024 q 0,-3.027973 0.131651,-4.476134 0.263302,-1.579812 1.31651,-3.554577 1.843114,-3.554577 10.268778,-3.554577 9.21557,0 10.927033,4.871087 0.658255,2.238067 0.658255,6.845852 v 73.197955 q 0,3.15963 -0.263302,4.60779 -0.131651,1.44816 -1.184859,3.42292 -1.843114,3.55458 -10.268778,3.55458 -9.21557,0 -10.795382,-5.00274 -0.789906,-2.10641 -0.789906,-6.7142 z"
             style="font-style:normal;font-variant:normal;font-weight:normal;font-stretch:normal;font-size:131.651px;font-family:'Fredoka One';-inkscape-font-specification:'Fredoka One';fill:url(#linearGradient5405);fill-opacity:1;fill-rule:evenodd;stroke:none;stroke-width:0.68568"
             id="path342" />
          <path
             d="m 162.10927,118.65637 q 6.05594,4.08118 8.68896,5.9243 4.73944,3.55457 4.73944,6.84585 0,3.15962 -3.94953,8.95227 -3.94953,5.79264 -8.03071,5.79264 -2.50137,0 -7.63576,-3.55458 -0.65825,-0.39495 -3.68623,-2.50137 -3.02797,-2.10641 -4.73943,-3.15962 -12.24355,9.47887 -27.51506,9.47887 -20.405908,0 -34.492565,-14.48161 -13.955006,-14.48161 -13.955006,-34.492561 0,-10.927033 3.94953,-20.405905 3.94953,-9.610523 10.53208,-16.061422 6.58255,-6.450899 15.139861,-10.137127 8.55732,-3.686228 17.64124,-3.686228 19.48435,0 33.83431,14.086657 14.34995,14.086657 14.34995,35.677421 0,10.927035 -4.87108,21.722415 z M 94.835606,96.802304 q 0,11.716936 7.504104,19.089396 7.63576,7.2408 16.98298,7.2408 9.34722,0 16.85133,-7.10915 7.50411,-7.10915 7.50411,-19.089395 0,-11.980241 -7.63576,-19.221046 -7.50411,-7.240805 -16.85133,-7.240805 -9.34722,0 -16.85133,7.372456 -7.504104,7.240805 -7.504104,18.957744 z"
             style="font-style:normal;font-variant:normal;font-weight:normal;font-stretch:normal;font-size:131.651px;font-family:'Fredoka One';-inkscape-font-specification:'Fredoka One';fill:url(#linearGradient5405);fill-opacity:1;fill-rule:evenodd;stroke:none;stroke-width:0.68568"
             id="path344" />
        </g>
        <path
           style="fill:url(#linearGradient5427);fill-opacity:1;stroke:none;stroke-width:0.263775px;stroke-linecap:butt;stroke-linejoin:miter;stroke-opacity:1"
           d="M 62.540692,7.2735363 C 99.052152,62.377016 173.81371,32.77355 173.81371,32.77355 c 0,0 -43.7558,-51.732787 -111.273018,-25.5000137 z"
           id="path5419" />
        <path
           id="path5431"
           style="fill:url(#linearGradient5439);fill-opacity:1;stroke:none;stroke-width:0.992723px;stroke-linecap:butt;stroke-linejoin:miter;stroke-opacity:1"
           transform="scale(0.26458333)"
           d="M 130.14062,100.11523 C 113.54113,115.08562 8.5101787,167.75322 3.0957031,382.25391 -2.5597147,606.29982 191.16831,707.39614 245.32422,731.25 c 0.26712,0.0393 0.54366,0.0944 0.78516,0.19531 0.12214,0.0312 0.24128,0.0953 0.35937,0.19727 0.21528,4e-4 0.36766,0.0689 0.51172,0.20117 0.25998,-0.0169 0.49295,0.0112 0.73047,0.16602 0.056,-0.005 0.11203,-0.0122 0.16797,-0.0176 0.15131,0.034 0.31691,0.0271 0.45312,0.10156 0.053,0.0289 0.0975,0.0718 0.14453,0.10937 0.27612,0.007 0.30912,0.0267 0.73633,0.17383 0.005,5.3e-4 0.008,-6.3e-4 0.0117,0 0.0314,0.004 0.11777,0.0439 0.0879,0.0352 -0.0678,-0.0221 -0.0487,-0.0176 -0.0996,-0.0352 -0.0548,-0.006 -0.17059,-0.006 -0.12891,0.004 0.53453,0.11993 0.55288,0.0393 0.6211,0.17773 0.29043,0.0831 0.64227,0.14931 0.80859,0.40039 0.004,0.005 0.004,0.012 0.008,0.0176 0.0222,0.0125 0.0461,0.0207 0.0684,0.0332 0.0327,10e-4 0.11344,9.1e-4 0.12305,0.002 0.25993,-1.81664 0.63223,-0.53756 0.80859,0.48047 0.0249,0.0522 0.0448,0.10698 0.0684,0.16015 0.009,0.006 0.0168,0.0102 0.0254,0.0156 0.006,-0.0225 0.0652,-0.0402 0.22461,-0.0605 0.0808,-0.0113 0.16112,-0.0178 0.24219,-0.0254 0.38482,-0.0198 0.57808,0.035 0.74805,0.21289 0.14864,-0.005 0.31048,-0.0141 0.38867,-0.0117 0.0583,0.004 0.11845,-0.005 0.17578,0.006 0.1975,0.0367 0.3922,0.0834 0.58594,0.13672 0.11501,0.0317 0.22409,0.0832 0.33789,0.11719 0.0316,0.0113 0.13054,0.0228 0.0977,0.0195 -0.35897,-0.0336 -0.0603,-0.0538 -0.51563,0.0312 -0.58915,0.34847 -0.0804,0.004 1.01172,0.0586 0.0955,0.005 0.16966,0.0875 0.25391,0.13282 0.0951,0.051 0.19055,0.10447 0.28515,0.15625 0.2162,0.11994 0.22153,0.16255 0.13867,0.0195 -0.0208,0.005 -0.0283,0.006 -0.0508,0.0117 -0.0166,0.004 0.0376,-0.0118 0.0488,-0.0156 0.002,0.003 2.2e-4,9.2e-4 0.002,0.004 0.58657,-0.13823 0.5121,-0.14134 1.15039,0.12695 0.23735,0.14476 0.54062,0.2277 0.81641,0.26172 0.0822,0.008 0.16539,-2.5e-4 0.24805,-0.008 0.0327,-0.004 0.0666,-0.0366 0.0957,-0.0215 0.0946,0.0508 0.18331,0.11274 0.27539,0.16797 0.30304,0.10645 0.61325,0.20298 0.89453,0.35742 0.12862,0.0703 0.20703,0.20857 0.31055,0.3125 0.0472,0.0209 0.0925,0.0577 0.13867,0.0899 0.64687,-5.55964 6.23921,-54.98494 3.13867,-77.78907 -3.28563,-24.16539 -31.76117,-61.51096 -90.90234,-62.60937 -59.14117,-1.09844 -54.75977,-52.72656 -54.75977,-52.72656 0,0 -1.0957,-249.34405 -1.0957,-324.03711 0,-74.69307 48.18945,-64.80664 48.18945,-64.80664 l -33.63281,-53.57813 c -0.11055,-0.014 -0.24263,-0.0338 -0.31641,-0.0859 z m 116.8086,631.85743 c 0.007,0.003 0.0161,0.007 0.0234,0.01 -0.004,-0.002 -0.005,-0.005 -0.008,-0.006 -0.005,-0.002 -0.0105,-0.002 -0.0156,-0.004 z m 0.45508,0.0801 c -0.003,0 -0.10346,0.033 -0.0645,0.0254 0.0277,-0.005 0.0549,-0.0132 0.082,-0.0215 -0.0107,-0.003 -0.006,-8.2e-4 -0.0176,-0.004 z m 1.3164,0.35352 c 0.0419,0.0386 0.0823,0.0785 0.12696,0.11328 0.041,0.0317 -0.0612,-0.0943 -0.11133,-0.10937 -0.007,-0.002 -0.009,-0.002 -0.0156,-0.004 z m 2.88477,1.27539 c 0.0222,0.0375 0.05,0.0699 0.0723,0.10742 0.0118,-10e-4 5.6e-4,-1.1e-4 0.0137,-0.002 0.0253,-0.003 0.0508,-0.004 0.0762,-0.008 -0.0509,-0.0372 -0.10336,-0.0716 -0.16211,-0.0977 z m 0.13476,0.19922 c 0.0244,0.0386 0.0514,0.0748 0.0781,0.11133 0.0413,0.025 0.0756,0.0588 0.11328,0.0879 -0.0104,-0.052 -0.0391,-0.10545 -0.0723,-0.16992 -0.0467,-0.0114 -0.0844,-0.0214 -0.11915,-0.0293 z m 0.19141,0.19922 c 0.001,0.007 9e-4,0.009 0.002,0.0156 0.0117,0.005 0.0255,0.0128 0.0371,0.0176 -0.0138,-0.0102 -0.0256,-0.0228 -0.0391,-0.0332 z m -0.11328,-0.0879 c -0.033,-0.0199 -0.0692,-0.0363 -0.10352,-0.0547 0.0117,0.0277 0.0252,0.0544 0.0371,0.082 0.0372,0.0154 0.0822,0.0355 0.11914,0.0508 -0.0166,-0.0268 -0.0342,-0.0528 -0.0527,-0.0781 z" />
        <path
           id="path5441"
           style="fill:url(#linearGradient5476);fill-opacity:1;stroke:none;stroke-width:0.262658px;stroke-linecap:butt;stroke-linejoin:miter;stroke-opacity:1"
           d="m 186.48791,105.86967 c -3.51464,0 -6.73377,1.22595 -8.03775,5.1494 -1.70843,5.14038 -2.2255,7.11576 -2.31179,7.80347 0.0117,0.002 0.0235,0.005 0.0369,0.0113 0.0132,0.006 0.0237,0.017 0.0353,0.0257 0.0322,-0.008 0.0653,-0.0134 0.0845,-0.003 0.0547,0.0292 0.0742,0.0434 0.0963,0.0596 0.0115,-0.0194 0.0302,-0.0504 0.0302,-0.0504 0,0 15.06849,7.84725 2.31846,25.57541 -12.75004,17.72816 -22.99858,15.13224 -31.91176,6.9121 -0.0625,-0.0577 -0.0457,-0.0416 -0.10655,-0.0976 -0.0525,0.0514 -0.10656,0.0559 -0.20029,0.0586 -0.007,-0.008 -0.004,-0.004 -0.0103,-0.0113 -0.61637,0.29736 -18.91164,9.05613 -30.89443,6.64906 -0.0222,0.0188 -0.0341,0.0272 -0.0779,0.0724 -0.0241,0.005 -0.0559,0.01 -0.0871,0.0108 -0.007,0.077 -0.041,0.0631 -0.0794,0.0205 -1.07395,0.64187 -10.36513,6.35533 -12.39292,13.23134 -2.15145,7.29537 0.20491,28.56496 0.20491,28.56496 0,0 31.55471,-0.30825 55.32321,-19.21456 23.76849,-18.9063 29.71062,-34.93557 29.71062,-34.93557 0,0 11.57152,-23.94333 10.80595,-36.42649 0,0 -6.67862,-3.40571 -12.53634,-3.40571 z m -71.03603,52.16548 c 7.8e-4,-0.01 0.002,-0.0186 0.003,-0.0288 -0.008,0.005 -0.0316,0.0192 -0.0425,0.0257 0.013,0.002 0.0261,0.004 0.04,0.003 z m 60.6829,-39.18743 c -5e-5,5.2e-4 -5.2e-4,0.001 -5.2e-4,0.002 0.008,0.005 0.0123,0.006 0.0236,0.0144 0.007,0.005 -0.0121,-0.0149 -0.021,-0.0159 -0.001,-1.5e-4 -0.002,-7e-5 -0.002,0 z m 0.0302,0.0211 c -0.005,0.002 -0.0193,0.004 -0.0144,0.005 0.005,0.002 0.0109,-0.003 0.0159,-0.004 7.9e-4,-2.1e-4 0.002,-2.6e-4 0.003,-5.2e-4 -0.002,1.6e-4 -0.002,-7.9e-4 -0.005,-5.3e-4 z m 0.0973,0.0288 c 0.003,0.002 0.007,0.004 0.01,0.007 0.003,0.002 -0.005,-0.005 -0.008,-0.006 -0.001,-5.3e-4 -7.9e-4,-8e-5 -0.002,-5.3e-4 z m -31.65512,30.46637 c 0.016,0.0149 0.0199,0.019 0.0359,0.0339 0.0336,0.008 0.0593,0.0117 0.04,0.002 -0.0401,-0.0211 -0.0516,-0.0244 -0.0758,-0.0354 z m 1.47272,1.35684 c 0.002,0.001 0.003,0.003 0.005,0.004 0.009,0.003 0.0371,0.007 0.0282,0.004 -0.0109,-0.003 -0.0221,-0.005 -0.0333,-0.007 z m -0.007,0.005 c 0.0104,0.0146 0.0174,0.0223 0.0266,0.0344 0.0212,0.0198 0.094,0.0877 0.11116,0.10378 0.0108,-5.3e-4 0.0187,-0.006 0.0215,-0.0226 -0.0219,-0.0132 -0.0434,-0.0277 -0.0676,-0.038 -0.0305,-0.0259 -0.0615,-0.0513 -0.0917,-0.0776 z m 0.59268,0.4778 c -0.0209,0.005 -0.0423,0.009 -0.061,0.0185 -0.0193,0.009 0.0515,0.0108 0.0651,-0.006 0.002,-0.002 0.003,-0.004 0.004,-0.006 -0.004,-0.004 -0.003,-0.003 -0.008,-0.007 z" />
        <path
           style="fill:#878fe7;fill-opacity:1;stroke:none;stroke-width:0.262658px;stroke-linecap:butt;stroke-linejoin:miter;stroke-opacity:1"
           d="m 34.433077,26.488876 -0.688624,-1.022807 c 0,0 -7.425446,6.884194 -7.986882,7.955876 -0.561436,1.071682 8.675506,-6.933069 8.675506,-6.933069 z"
           id="path5509" />
        <path
           style="fill:#7d7ceb;fill-opacity:1;stroke:none;stroke-width:0.264583px;stroke-linecap:butt;stroke-linejoin:miter;stroke-opacity:1"
           d="m 4.165646,73.300756 c 0,0 -5.2618687,16.95491 -3.21558637,35.663774 2.04628227,18.70887 0.0730815,-0.21924 0.0730815,-0.21924 z"
           id="path865" />
        <path
           style="fill:#90a2e3;fill-opacity:1;stroke:none;stroke-width:0.264583px;stroke-linecap:butt;stroke-linejoin:miter;stroke-opacity:1"
           d="m 197.09391,122.05973 -11.36881,28.9388 c 0,0 8.26823,-13.95263 11.36881,-28.9388 z"
           id="path867" />
        <path
           style="fill:#8b96e5;fill-opacity:1;stroke:none;stroke-width:0.264583px;stroke-linecap:butt;stroke-linejoin:miter;stroke-opacity:1"
           d="m 182.72786,155.236 -25.2181,26.14828 c 0,0 15.91634,-10.7487 25.2181,-26.14828 z"
           id="path869" />
        <path
           style="fill:#8891e7;fill-opacity:1;stroke:none;stroke-width:0.264583px;stroke-linecap:butt;stroke-linejoin:miter;stroke-opacity:1"
           d="m 21.032308,160.35197 41.857909,32.19442 c 0,0 -27.256774,-10.405 -41.857909,-32.19442 z"
           id="path902" />
        <path
           style="fill:#8c99e5;fill-opacity:1;stroke:none;stroke-width:0.264583px;stroke-linecap:butt;stroke-linejoin:miter;stroke-opacity:1"
           d="m 130.22461,4.7025554 40.46264,24.7530116 c 0,0 -16.79088,-17.858011 -40.46264,-24.7530116 z"
           id="path920" />
      </g>
    </g>
  </g>
</svg>
